<?xml version="1.0" encoding="UTF-8"?><svg id="Layer_1" xmlns="http://www.w3.org/2000/svg" viewBox="0 0 383.76 185.31"><defs><style>.cls-1{fill:#231f20;font-family:Arial-BoldMT, Arial;font-size:6px;font-weight:700;}.cls-2{letter-spacing:-.04em;}.cls-3{fill:#fff;}.cls-3,.cls-4{stroke:#231f20;stroke-miterlimit:10;stroke-width:.5px;}.cls-5{fill:#f7941d;font-family:ArialMT, Arial;font-size:4px;}.cls-4{fill:none;}</style></defs><rect class="cls-3" x="118.26" y="73.2" width="59.41" height="100.02"/><text class="cls-1" transform="translate(141.29 84.31)"><tspan x="0" y="0">3614</tspan></text><rect class="cls-3" x="59.31" y="73.2" width="59.41" height="100.02"/><text class="cls-1" transform="translate(82.34 84.31)"><tspan x="0" y="0">3608</tspan></text><rect class="cls-3" x=".25" y="73.2" width="59.41" height="100.02"/><text class="cls-1" transform="translate(23.28 84.31)"><tspan x="0" y="0">3606</tspan></text><rect class="cls-3" x="236.27" y="73.2" width="59.41" height="100.02"/><text class="cls-1" transform="translate(259.3 84.31)"><tspan x="0" y="0">3622</tspan></text><rect class="cls-3" x="177.67" y="73.2" width="59.41" height="100.02"/><text class="cls-1" transform="translate(200.7 84.31)"><tspan x="0" y="0">3616</tspan></text><rect class="cls-3" x="324.1" y="73.2" width="59.41" height="100.02"/><text class="cls-1" transform="translate(347.3 84.31)"><tspan x="0" y="0">NUB</tspan></text><line class="cls-4" x1="183.74" y1="173.4" x2="195.69" y2="173.33"/><line class="cls-4" x1="195.66" y1="173.22" x2="195.74" y2="185.22"/><path class="cls-4" d="M195.63,185.06c-6.48.04-11.75-5.12-11.78-11.53"/><line class="cls-4" x1="171.03" y1="173.4" x2="159.08" y2="173.33"/><line class="cls-4" x1="159.1" y1="173.22" x2="159.03" y2="185.22"/><path class="cls-4" d="M159.14,185.06c6.48.04,11.75-5.12,11.78-11.53"/><line class="cls-4" x1="65.82" y1="173.4" x2="77.78" y2="173.33"/><line class="cls-4" x1="77.75" y1="173.22" x2="77.82" y2="185.22"/><path class="cls-4" d="M77.71,185.06c-6.48.04-11.75-5.12-11.78-11.53"/><line class="cls-4" x1="53.69" y1="173.4" x2="41.73" y2="173.33"/><line class="cls-4" x1="41.76" y1="173.22" x2="41.69" y2="185.22"/><path class="cls-4" d="M41.79,185.06c6.48.04,11.75-5.12,11.78-11.53"/><line class="cls-4" x1="289.46" y1="173.4" x2="277.51" y2="173.33"/><line class="cls-4" x1="277.53" y1="173.22" x2="277.46" y2="185.22"/><path class="cls-4" d="M277.57,185.06c6.48.04,11.75-5.12,11.78-11.53"/><line class="cls-4" x1="71.93" y1="85.62" x2="59.98" y2="85.47"/><line class="cls-4" x1="60" y1="85.36" x2="59.86" y2="97.36"/><path class="cls-4" d="M59.97,97.2c6.47.08,11.78-5.05,11.85-11.46"/><line class="cls-4" x1="47.58" y1="85.55" x2="59.53" y2="85.47"/><line class="cls-4" x1="59.51" y1="85.36" x2="59.58" y2="97.36"/><path class="cls-4" d="M59.47,97.2c-6.48.04-11.75-5.12-11.78-11.53"/><line class="cls-4" x1="130.9" y1="85.62" x2="118.94" y2="85.47"/><line class="cls-4" x1="118.97" y1="85.36" x2="118.83" y2="97.36"/><path class="cls-4" d="M118.93,97.2c6.47.08,11.78-5.05,11.85-11.46"/><line class="cls-4" x1="106.54" y1="85.55" x2="118.5" y2="85.47"/><line class="cls-4" x1="118.47" y1="85.36" x2="118.54" y2="97.36"/><path class="cls-4" d="M118.43,97.2c-6.48.04-11.75-5.12-11.78-11.53"/><line class="cls-4" x1="189.85" y1="85.62" x2="177.89" y2="85.47"/><line class="cls-4" x1="177.92" y1="85.36" x2="177.78" y2="97.36"/><path class="cls-4" d="M177.88,97.2c6.47.08,11.78-5.05,11.85-11.46"/><line class="cls-4" x1="165.49" y1="85.55" x2="177.45" y2="85.47"/><line class="cls-4" x1="177.42" y1="85.36" x2="177.49" y2="97.36"/><path class="cls-4" d="M177.38,97.2c-6.48.04-11.75-5.12-11.78-11.53"/><line class="cls-4" x1="249.25" y1="85.62" x2="237.3" y2="85.47"/><line class="cls-4" x1="237.33" y1="85.36" x2="237.18" y2="97.36"/><path class="cls-4" d="M237.29,97.2c6.47.08,11.78-5.05,11.85-11.46"/><line class="cls-4" x1="224.9" y1="85.55" x2="236.86" y2="85.47"/><line class="cls-4" x1="236.83" y1="85.36" x2="236.9" y2="97.36"/><path class="cls-4" d="M236.79,97.2c-6.48.04-11.75-5.12-11.78-11.53"/><rect class="cls-4" x="70.18" y="114.95" width="26.81" height="9.41" transform="translate(203.24 36.08) rotate(90)"/><text class="cls-5" transform="translate(82.66 119.4) rotate(91.54)"><tspan x="0" y="0">Huron</tspan></text><rect class="cls-4" x="17.95" y="158.95" width="24" height="8"/><text class="cls-5" transform="translate(29.95 164.02)"><tspan x="0" y="0">ISCO</tspan></text><rect class="cls-4" x="80.76" y="114.95" width="26.81" height="9.41" transform="translate(213.82 25.49) rotate(90)"/><text class="cls-5" transform="translate(93.26 118.29) rotate(91.54)"><tspan x="0" y="0">GCMS</tspan></text><rect class="cls-4" x="78.8" y="155.44" width="20.43" height="8"/><text class="cls-5" transform="translate(89.37 160.51)"><tspan x="0" y="0">SPS</tspan></text><text class="cls-5" transform="translate(271.35 117.26) rotate(90)"><tspan x="0" y="0">Ganges</tspan></text><text class="cls-5" transform="translate(271.35 151.94) rotate(90)"><tspan x="0" y="0">Nile</tspan></text><text class="cls-5" transform="translate(287.27 142.59) rotate(90)"><tspan x="0" y="0">Huanghe</tspan></text><text class="cls-5" transform="translate(351.46 104.75)"><tspan x="0" y="0">Colorado</tspan></text><rect class="cls-4" x="258.9" y="114.93" width="27.04" height="9.41" transform="translate(392.06 -152.79) rotate(90)"/><rect class="cls-4" x="337.71" y="87.96" width="32.46" height="8"/><text class="cls-5" transform="translate(352.35 93.03)"><tspan x="0" y="0">NUB GB</tspan></text><text class="cls-5" transform="translate(110.46 118.7) rotate(91.54)"><tspan x="0" y="0">GB</tspan></text><rect class="cls-4" x="101.5" y="111.55" width="20" height="9.41" transform="translate(227.76 4.75) rotate(90)"/><text class="cls-5" transform="translate(110.49 137.39) rotate(91.54)"><tspan x="0" y="0">OT2</tspan></text><rect class="cls-4" x="101.5" y="131.93" width="20" height="9.41" transform="translate(248.14 25.13) rotate(90)"/><rect class="cls-4" x="101.5" y="152.31" width="20" height="9.41" transform="translate(268.52 45.51) rotate(90)"/><text class="cls-5" transform="translate(110.51 155.44) rotate(91.54)"><tspan x="0" y="0">Mosq</tspan></text><text class="cls-5" transform="translate(243.23 118.67) rotate(91.54)"><tspan x="0" y="0">GB</tspan></text><rect class="cls-4" x="234.28" y="111.53" width="20" height="9.41" transform="translate(360.51 -128.05) rotate(90)"/><text class="cls-5" transform="translate(243.26 137.37) rotate(91.54)"><tspan x="0" y="0">OT2</tspan></text><rect class="cls-4" x="234.28" y="131.9" width="20" height="9.41" transform="translate(380.89 -107.67) rotate(90)"/><rect class="cls-4" x="234.28" y="152.28" width="20" height="9.41" transform="translate(401.27 -87.29) rotate(90)"/><text class="cls-5" transform="translate(243.29 155.41) rotate(91.54)"><tspan x="0" y="0">Mosq</tspan></text><rect class="cls-4" x="258.82" y="142.31" width="27.04" height="9.41" transform="translate(419.36 -125.33) rotate(90)"/><rect class="cls-4" x="274.81" y="142.31" width="27.04" height="9.41" transform="translate(435.35 -141.32) rotate(90)"/><text class="cls-5" transform="translate(93.18 145.93) rotate(91.54)"><tspan x="0" y="0">GV</tspan></text><rect class="cls-4" x="84.17" y="138.79" width="20" height="9.41" transform="translate(237.66 49.33) rotate(90)"/><rect class="cls-4" x="216.2" y="114.95" width="26.81" height="9.41" transform="translate(349.27 -109.95) rotate(90)"/><text class="cls-5" transform="translate(228.7 117.29) rotate(91.54)"><tspan x="0" y="0">Biotage</tspan></text><rect class="cls-4" x="251.46" y="145.83" width="20" height="9.41" transform="translate(412 -110.93) rotate(90)"/><text class="cls-5" transform="translate(260.48 152.44) rotate(91.54)"><tspan class="cls-2" x="0" y="0">L</tspan><tspan x="2.08" y="0">yo</tspan></text><rect class="cls-4" x="337.71" y="99.68" width="32.46" height="8"/><rect class="cls-4" x="337.58" y="123.02" width="32.46" height="8"/><rect class="cls-4" x="337.58" y="130.67" width="32.46" height="8"/><rect class="cls-4" x="337.71" y="138.86" width="32.46" height="8"/><rect class="cls-4" x="337.71" y="147.05" width="32.46" height="8"/><rect class="cls-4" x="337.71" y="155.28" width="32.46" height="8"/><rect class="cls-4" x="337.71" y="162.93" width="32.46" height="8"/><text class="cls-5" transform="translate(348.79 128.08)"><tspan x="0" y="0">Incubator1</tspan></text><rect class="cls-4" x="337.58" y="111.19" width="32.46" height="8"/><text class="cls-5" transform="translate(361.91 116.25)"><tspan x="0" y="0">-80</tspan></text><text class="cls-5" transform="translate(348.79 135.74)"><tspan x="0" y="0">Incubator2</tspan></text><text class="cls-5" transform="translate(348.79 143.92)"><tspan x="0" y="0">Incubator3</tspan></text><text class="cls-5" transform="translate(348.79 152.12)"><tspan x="0" y="0">Incubator4</tspan></text><text class="cls-5" transform="translate(348.79 160.35)"><tspan x="0" y="0">Incubator5</tspan></text><text class="cls-5" transform="translate(348.79 168)"><tspan x="0" y="0">Incubator6</tspan></text></svg>