<?xml version="1.0" encoding="UTF-8"?><svg id="Layer_1" xmlns="http://www.w3.org/2000/svg" viewBox="0 0 263.91 87.26"><defs><style>.cls-1{fill:#fff;}.cls-1,.cls-2{stroke:#231f20;stroke-miterlimit:10;stroke-width:.5px;}.cls-3{fill:#f7941d;font-size:4px;}.cls-3,.cls-4{font-family:ArialMT, Arial;}.cls-4{fill:#231f20;font-size:6px;}.cls-2{fill:none;}</style></defs><rect class="cls-1" x="151.22" y=".28" width="50" height="75"/><text class="cls-4" transform="translate(167.55 17.81)"><tspan x="0" y="0">3616</tspan></text><rect class="cls-2" x="163.27" y="47.75" width="26.81" height="9.41"/><text class="cls-4" transform="translate(176.39 55.45)"><tspan x="0" y="0">Isco</tspan></text><line class="cls-2" x1="156" y1="75.35" x2="167.95" y2="75.28"/><line class="cls-2" x1="167.93" y1="75.17" x2="168" y2="87.17"/><path class="cls-2" d="M167.89,87.01c-6.48.04-11.75-5.12-11.78-11.53"/><line class="cls-2" x1="213.26" y1="20.31" x2="201.3" y2="20.23"/><line class="cls-2" x1="201.33" y1="20.12" x2="201.26" y2="32.12"/><path class="cls-2" d="M201.36,31.97c6.48.04,11.75-5.12,11.78-11.53"/><line class="cls-2" x1="188.94" y1="20.31" x2="200.89" y2="20.23"/><line class="cls-2" x1="200.87" y1="20.12" x2="200.94" y2="32.12"/><path class="cls-2" d="M200.83,31.97c-6.48.04-11.75-5.12-11.78-11.53"/><rect class="cls-1" x="100.77" y=".28" width="50" height="75"/><text class="cls-4" transform="translate(117.09 17.81)"><tspan x="0" y="0">3614</tspan></text><rect class="cls-2" x="112.81" y="47.75" width="26.81" height="9.41"/><text class="cls-4" transform="translate(125.93 55.45)"><tspan x="0" y="0">Isco</tspan></text><line class="cls-2" x1="146.46" y1="75.35" x2="134.51" y2="75.28"/><line class="cls-2" x1="134.53" y1="75.17" x2="134.46" y2="87.17"/><path class="cls-2" d="M134.57,87.01c6.48.04,11.75-5.12,11.78-11.53"/><line class="cls-2" x1="162.8" y1="20.31" x2="150.84" y2="20.23"/><line class="cls-2" x1="150.87" y1="20.12" x2="150.8" y2="32.12"/><path class="cls-2" d="M150.91,31.97c6.48.04,11.75-5.12,11.78-11.53"/><line class="cls-2" x1="138.48" y1="20.31" x2="150.44" y2="20.23"/><line class="cls-2" x1="150.41" y1="20.12" x2="150.48" y2="32.12"/><path class="cls-2" d="M150.37,31.97c-6.48.04-11.75-5.12-11.78-11.53"/><rect class="cls-1" x="50.71" y=".28" width="50" height="75"/><text class="cls-4" transform="translate(67.03 17.81)"><tspan x="0" y="0">3608</tspan></text><rect class="cls-2" x="55.97" y="41.55" width="26.81" height="9.41" transform="translate(115.63 -23.12) rotate(90)"/><text class="cls-3" transform="translate(68.96 44.26) rotate(91.54)"><tspan x="0" y="0">Huron</tspan></text><line class="cls-2" x1="55.48" y1="75.35" x2="67.44" y2="75.28"/><line class="cls-2" x1="67.41" y1="75.17" x2="67.48" y2="87.17"/><path class="cls-2" d="M67.38,87.01c-6.48.04-11.75-5.12-11.78-11.53"/><line class="cls-2" x1="112.74" y1="20.31" x2="100.79" y2="20.23"/><line class="cls-2" x1="100.81" y1="20.12" x2="100.74" y2="32.12"/><path class="cls-2" d="M100.85,31.97c6.48.04,11.75-5.12,11.78-11.53"/><line class="cls-2" x1="88.42" y1="20.31" x2="100.38" y2="20.23"/><line class="cls-2" x1="100.35" y1="20.12" x2="100.42" y2="32.12"/><path class="cls-2" d="M100.31,31.97c-6.48.04-11.75-5.12-11.78-11.53"/><rect class="cls-1" x=".25" y=".28" width="50" height="75"/><text class="cls-4" transform="translate(16.58 17.81)"><tspan x="0" y="0">3606</tspan></text><rect class="cls-2" x="13.7" y="50.96" width="24" height="8"/><text class="cls-3" transform="translate(27.36 56.45)"><tspan x="0" y="0">Isco</tspan></text><line class="cls-2" x1="45.95" y1="75.35" x2="33.99" y2="75.28"/><line class="cls-2" x1="34.02" y1="75.17" x2="33.95" y2="87.17"/><path class="cls-2" d="M34.05,87.01c6.48.04,11.75-5.12,11.78-11.53"/><line class="cls-2" x1="62.28" y1="20.31" x2="50.33" y2="20.23"/><line class="cls-2" x1="50.36" y1="20.12" x2="50.28" y2="32.12"/><path class="cls-2" d="M50.39,31.97c6.48.04,11.75-5.12,11.78-11.53"/><line class="cls-2" x1="37.97" y1="20.31" x2="49.92" y2="20.23"/><line class="cls-2" x1="49.89" y1="20.12" x2="49.97" y2="32.12"/><path class="cls-2" d="M49.86,31.97c-6.48.04-11.75-5.12-11.78-11.53"/><rect class="cls-1" x="201.73" y=".25" width="50" height="75"/><text class="cls-4" transform="translate(218.06 17.77)"><tspan x="0" y="0">3622</tspan></text><rect class="cls-2" x="213.78" y="47.72" width="26.81" height="9.41"/><text class="cls-4" transform="translate(226.9 55.42)"><tspan x="0" y="0">Isco</tspan></text><line class="cls-2" x1="247.43" y1="75.32" x2="235.47" y2="75.25"/><line class="cls-2" x1="235.5" y1="75.14" x2="235.43" y2="87.14"/><path class="cls-2" d="M235.53,86.98c6.48.04,11.75-5.12,11.78-11.53"/><line class="cls-2" x1="263.76" y1="20.27" x2="251.81" y2="20.2"/><line class="cls-2" x1="251.84" y1="20.09" x2="251.76" y2="32.09"/><path class="cls-2" d="M251.87,31.93c6.48.04,11.75-5.12,11.78-11.53"/><line class="cls-2" x1="239.45" y1="20.27" x2="251.4" y2="20.2"/><line class="cls-2" x1="251.37" y1="20.09" x2="251.45" y2="32.09"/><path class="cls-2" d="M251.34,31.93c-6.48.04-11.75-5.12-11.78-11.53"/><rect class="cls-2" x="78.79" y="48.05" width="29" height="9.41" transform="translate(146.04 -40.53) rotate(90)"/><rect class="cls-2" x="66.51" y="41.52" width="26.81" height="9.41" transform="translate(126.14 -33.68) rotate(90)"/><text class="cls-3" transform="translate(79.6 34.57) rotate(91.54)"><tspan x="0" y="0">GCMS</tspan></text><text class="cls-3" transform="translate(92.22 45.07) rotate(91.54)"><tspan x="0" y="0">Glovebox</tspan></text><rect class="cls-2" x="64.51" y="60.84" width="20.43" height="8"/><text class="cls-3" transform="translate(71.23 66.29)"><tspan x="0" y="0">SPS</tspan></text></svg>